<svg width="12" height="13" viewBox="0 0 12 13" fill="none" xmlns="http://www.w3.org/2000/svg">
<path d="M6 11.875C3.035 11.875 0.625 9.465 0.625 6.5C0.625 3.535 3.035 1.125 6 1.125C8.965 1.125 11.375 3.535 11.375 6.5C11.375 9.465 8.965 11.875 6 11.875ZM6 1.875C3.45 1.875 1.375 3.95 1.375 6.5C1.375 9.05 3.45 11.125 6 11.125C8.55 11.125 10.625 9.05 10.625 6.5C10.625 3.95 8.55 1.875 6 1.875Z" fill="#00A559"/>
<path d="M5.29 8.29078C5.19 8.29078 5.095 8.25078 5.025 8.18078L3.61 6.76578C3.465 6.62078 3.465 6.38078 3.61 6.23578C3.755 6.09078 3.995 6.09078 4.14 6.23578L5.29 7.38578L7.86 4.81578C8.005 4.67078 8.245 4.67078 8.39 4.81578C8.535 4.96078 8.535 5.20078 8.39 5.34578L5.555 8.18078C5.485 8.25078 5.39 8.29078 5.29 8.29078Z" fill="#00A559"/>
</svg>
