<svg width="18" height="18" viewBox="0 0 18 18" fill="none" xmlns="http://www.w3.org/2000/svg">
<path d="M8.2168 11.7301C8.21679 11.6265 8.23729 11.524 8.27712 11.4284C8.31696 11.3328 8.37533 11.2461 8.44888 11.1732C8.52242 11.1003 8.60972 11.0427 8.70565 11.0037C8.80158 10.9647 8.90426 10.9452 9.0078 10.9461C9.16055 10.9488 9.30911 10.9965 9.43488 11.0833C9.56065 11.17 9.65811 11.2919 9.71498 11.4337C9.77185 11.5755 9.78561 11.7309 9.75463 11.8805C9.72365 12.0301 9.64925 12.1672 9.54075 12.2748C9.43224 12.3823 9.29447 12.4555 9.1446 12.4852C8.99473 12.5148 8.83942 12.4996 8.69813 12.4415C8.55685 12.3834 8.43588 12.2849 8.35027 12.1584C8.26466 12.0318 8.2182 11.8829 8.2168 11.7301ZM8.46879 9.81906L8.37078 6.16508C8.36148 6.07724 8.37079 5.98843 8.39803 5.90441C8.42528 5.82039 8.46986 5.74304 8.52894 5.67737C8.58802 5.61171 8.66026 5.55921 8.74094 5.52327C8.82163 5.48733 8.90896 5.46875 8.99729 5.46875C9.08562 5.46875 9.17295 5.48733 9.25364 5.52327C9.33432 5.55921 9.40656 5.61171 9.46564 5.67737C9.52472 5.74304 9.5693 5.82039 9.59655 5.90441C9.62379 5.98843 9.6331 6.07724 9.6238 6.16508L9.5328 9.81906C9.5328 9.96015 9.4768 10.0955 9.37703 10.1952C9.27726 10.295 9.14189 10.3511 9.00079 10.3511C8.8597 10.3511 8.72442 10.295 8.62465 10.1952C8.52488 10.0955 8.46879 9.96015 8.46879 9.81906Z" fill="black"/>
<path d="M9.00039 15.4754C12.5764 15.4754 15.4754 12.5764 15.4754 9.00039C15.4754 5.42435 12.5764 2.52539 9.00039 2.52539C5.42435 2.52539 2.52539 5.42435 2.52539 9.00039C2.52539 12.5764 5.42435 15.4754 9.00039 15.4754Z" stroke="black" stroke-width="1.05" stroke-linecap="round" stroke-linejoin="round"/>
</svg>
