<svg width="24" height="25" viewBox="0 0 24 25" fill="none" xmlns="http://www.w3.org/2000/svg">
<path d="M12.1998 17.5264C11.4998 17.5264 10.7898 17.2564 10.2598 16.7264C9.73977 16.2064 9.44977 15.5164 9.44977 14.7864C9.44977 14.0564 9.73977 13.3564 10.2598 12.8464L11.6697 11.4364C11.9597 11.1464 12.4397 11.1464 12.7297 11.4364C13.0197 11.7264 13.0197 12.2064 12.7297 12.4964L11.3198 13.9064C11.0798 14.1464 10.9498 14.4564 10.9498 14.7864C10.9498 15.1164 11.0798 15.4364 11.3198 15.6664C11.8098 16.1564 12.5998 16.1564 13.0898 15.6664L15.3098 13.4464C16.5798 12.1764 16.5798 10.1164 15.3098 8.84642C14.0398 7.57642 11.9798 7.57642 10.7098 8.84642L8.28973 11.2664C7.77973 11.7764 7.49976 12.4464 7.49976 13.1564C7.49976 13.8664 7.77973 14.5464 8.28973 15.0464C8.57973 15.3364 8.57973 15.8164 8.28973 16.1064C7.99973 16.3964 7.51974 16.3964 7.22974 16.1064C6.43974 15.3164 6.00977 14.2664 6.00977 13.1464C6.00977 12.0264 6.43974 10.9764 7.22974 10.1864L9.64978 7.76641C11.4998 5.91641 14.5198 5.91641 16.3698 7.76641C18.2198 9.61641 18.2198 12.6364 16.3698 14.4864L14.1498 16.7064C13.6098 17.2564 12.9098 17.5264 12.1998 17.5264Z" fill="#292D32"/>
<path d="M12 22.8965C6.07 22.8965 1.25 18.0765 1.25 12.1465C1.25 6.21649 6.07 1.39648 12 1.39648C17.93 1.39648 22.75 6.21649 22.75 12.1465C22.75 18.0765 17.93 22.8965 12 22.8965ZM12 2.89648C6.9 2.89648 2.75 7.04649 2.75 12.1465C2.75 17.2465 6.9 21.3965 12 21.3965C17.1 21.3965 21.25 17.2465 21.25 12.1465C21.25 7.04649 17.1 2.89648 12 2.89648Z" fill="#292D32"/>
</svg>
