<svg width="15" height="15" viewBox="0 0 15 15" fill="none" xmlns="http://www.w3.org/2000/svg">
<path d="M4.87831 3.43023C4.58395 3.43023 4.33984 3.20884 4.33984 2.94186V0.988372C4.33984 0.721395 4.58395 0.5 4.87831 0.5C5.17266 0.5 5.41677 0.721395 5.41677 0.988372V2.94186C5.41677 3.20884 5.17266 3.43023 4.87831 3.43023Z" fill="#868686"/>
<path d="M10.6205 3.43023C10.3261 3.43023 10.082 3.20884 10.082 2.94186V0.988372C10.082 0.721395 10.3261 0.5 10.6205 0.5C10.9149 0.5 11.159 0.721395 11.159 0.988372V2.94186C11.159 3.20884 10.9149 3.43023 10.6205 3.43023Z" fill="#868686"/>
<path d="M13.853 6.09393H1.64784C1.35348 6.09393 1.10938 5.87254 1.10938 5.60556C1.10938 5.33858 1.35348 5.11719 1.64784 5.11719H13.853C14.1473 5.11719 14.3914 5.33858 14.3914 5.60556C14.3914 5.87254 14.1473 6.09393 13.853 6.09393Z" fill="#868686"/>
<path d="M10.6218 14.4998H4.87821C2.25769 14.4998 0.75 13.1324 0.75 10.7556V5.22075C0.75 2.844 2.25769 1.47656 4.87821 1.47656H10.6218C13.2423 1.47656 14.75 2.844 14.75 5.22075V10.7556C14.75 13.1324 13.2423 14.4998 10.6218 14.4998ZM4.87821 2.45331C2.82487 2.45331 1.82692 3.35842 1.82692 5.22075V10.7556C1.82692 12.618 2.82487 13.5231 4.87821 13.5231H10.6218C12.6751 13.5231 13.6731 12.618 13.6731 10.7556V5.22075C13.6731 3.35842 12.6751 2.45331 10.6218 2.45331H4.87821Z" fill="#868686"/>
<path d="M5.23748 9.12851C5.14415 9.12851 5.05081 9.10898 4.96466 9.07642C4.8785 9.04386 4.79954 8.99827 4.72774 8.93966C4.66313 8.87455 4.61285 8.80293 4.57696 8.72479C4.54106 8.64665 4.51953 8.56199 4.51953 8.47734C4.51953 8.30804 4.59851 8.13874 4.72774 8.01502C4.79954 7.95642 4.8785 7.91082 4.96466 7.87826C5.09389 7.82617 5.23749 7.81315 5.38108 7.8392C5.42416 7.84571 5.46723 7.85873 5.5103 7.87826C5.55338 7.89129 5.59645 7.91084 5.63953 7.93689C5.67543 7.96293 5.71132 7.98898 5.74722 8.01502C5.77594 8.04758 5.81183 8.08013 5.83337 8.11269C5.86209 8.15176 5.88364 8.19083 5.898 8.2299C5.91954 8.26897 5.9339 8.30803 5.94108 8.3471C5.94826 8.39268 5.95543 8.43176 5.95543 8.47734C5.95543 8.64664 5.87645 8.81594 5.74722 8.93966C5.61081 9.05687 5.42415 9.12851 5.23748 9.12851Z" fill="#868686"/>
<path d="M7.7492 9.12778C7.56253 9.12778 7.37587 9.05615 7.23946 8.93894C7.21074 8.90638 7.18203 8.87382 7.15331 8.84127C7.12459 8.8022 7.10304 8.76313 7.08868 8.72406C7.06714 8.68499 7.05278 8.64593 7.0456 8.60686C7.03842 8.56128 7.03125 8.5222 7.03125 8.47662C7.03125 8.39197 7.05278 8.30731 7.08868 8.22917C7.12457 8.15103 7.17485 8.07941 7.23946 8.0143C7.44049 7.83197 7.76356 7.77335 8.02202 7.87754C8.11536 7.9101 8.18714 7.95569 8.25894 8.0143C8.38817 8.13802 8.46715 8.30731 8.46715 8.47662C8.46715 8.5222 8.45998 8.56128 8.4528 8.60686C8.44562 8.64593 8.43126 8.68499 8.40972 8.72406C8.39536 8.76313 8.3738 8.8022 8.34509 8.84127C8.31637 8.87382 8.28765 8.90638 8.25894 8.93894C8.18714 8.99754 8.11536 9.04314 8.02202 9.07569C7.93587 9.10825 7.84253 9.12778 7.7492 9.12778Z" fill="#868686"/>
<path d="M5.23748 11.4071C5.14415 11.4071 5.05081 11.3875 4.96466 11.355C4.8785 11.3224 4.79954 11.2768 4.72774 11.2182C4.66313 11.1531 4.61285 11.088 4.57696 11.0034C4.54106 10.9252 4.51953 10.8406 4.51953 10.7559C4.51953 10.5866 4.59851 10.4173 4.72774 10.2936C4.79954 10.235 4.8785 10.1894 4.96466 10.1568C5.2303 10.0526 5.54619 10.1113 5.74722 10.2936C5.77594 10.3262 5.81183 10.3587 5.83337 10.3913C5.86209 10.4303 5.88364 10.4694 5.898 10.5085C5.91954 10.5475 5.9339 10.5866 5.94108 10.6322C5.94826 10.6713 5.95543 10.7168 5.95543 10.7559C5.95543 10.9252 5.87645 11.0945 5.74722 11.2182C5.61081 11.3354 5.42415 11.4071 5.23748 11.4071Z" fill="#868686"/>
</svg>
