<svg width="16" height="15" viewBox="0 0 16 15" fill="none" xmlns="http://www.w3.org/2000/svg">
<path d="M0.95 7.5C0.95 11.389 4.11099 14.55 8 14.55C11.889 14.55 15.05 11.389 15.05 7.5C15.05 3.61099 11.889 0.45 8 0.45C4.11099 0.45 0.95 3.61099 0.95 7.5ZM2.02674 7.5C2.02674 4.20668 4.70668 1.52674 8 1.52674C11.2933 1.52674 13.9733 4.20668 13.9733 7.5C13.9733 10.7933 11.2933 13.4733 8 13.4733C4.70668 13.4733 2.02674 10.7933 2.02674 7.5Z" fill="#868686" stroke="#868686" stroke-width="0.1"/>
<path d="M8.12426 8.8257L8.12428 8.82571L10.1418 10.0297C10.2293 10.0877 10.3237 10.1091 10.4159 10.1091C10.5961 10.1091 10.7748 10.0155 10.8816 9.84462L10.8816 9.84464L10.8824 9.84332C11.0323 9.58626 10.9545 9.25574 10.6953 9.10437C10.6952 9.10432 10.6952 9.10428 10.6951 9.10424L8.67692 7.89984L8.67692 7.89984L8.6764 7.89954C8.58602 7.84705 8.49218 7.73974 8.42046 7.61364C8.34877 7.4876 8.30409 7.3514 8.30409 7.24603V4.57626C8.30409 4.28167 8.06031 4.03789 7.76572 4.03789C7.47112 4.03789 7.22734 4.28167 7.22734 4.57626V7.24603C7.22734 7.84312 7.60772 8.51712 8.12426 8.8257Z" fill="#868686" stroke="#868686" stroke-width="0.1"/>
</svg>
