<svg width="24" height="24" viewBox="0 0 24 24" fill="none" xmlns="http://www.w3.org/2000/svg">
<g clip-path="url(#clip0_2346_31998)">
<path d="M16 11.9991C15.87 12.0007 15.7409 11.977 15.62 11.9292C15.4971 11.8773 15.3852 11.8026 15.29 11.7092C15.2001 11.6171 15.1287 11.5083 15.08 11.3891C15.0296 11.2651 15.0025 11.1329 15 10.9991C15.0011 10.7368 15.1053 10.4854 15.29 10.2992C15.3825 10.2025 15.4952 10.1274 15.62 10.0792C15.8031 10.0039 16.0044 9.98449 16.1984 10.0237C16.3924 10.0628 16.5705 10.1587 16.71 10.2992C16.8947 10.4854 16.9989 10.7368 17 10.9991C16.9975 11.1329 16.9704 11.2651 16.92 11.3891C16.8713 11.5083 16.7999 11.6171 16.71 11.7092C16.6166 11.8019 16.5057 11.8751 16.3839 11.9249C16.2621 11.9747 16.1316 11.9999 16 11.9991Z" fill="black"/>
<path d="M12 11.9991C11.87 12.0007 11.7409 11.977 11.62 11.9292C11.4971 11.8773 11.3852 11.8026 11.29 11.7092C11.2001 11.6171 11.1287 11.5083 11.08 11.3891C11.0296 11.2651 11.0025 11.1329 11 10.9991C11.0011 10.7368 11.1053 10.4854 11.29 10.2992C11.3825 10.2025 11.4952 10.1274 11.62 10.0792C11.8031 10.0039 12.0044 9.98449 12.1984 10.0237C12.3924 10.0628 12.5705 10.1587 12.71 10.2992C12.8947 10.4854 12.9989 10.7368 13 10.9991C12.9975 11.1329 12.9704 11.2651 12.92 11.3891C12.8713 11.5083 12.7999 11.6171 12.71 11.7092C12.6166 11.8019 12.5057 11.8751 12.3839 11.9249C12.2621 11.9747 12.1316 11.9999 12 11.9991Z" fill="black"/>
<path d="M8 11.9991C7.86999 12.0007 7.74091 11.977 7.62 11.9292C7.49713 11.8773 7.38519 11.8026 7.29001 11.7092C7.20006 11.6171 7.12873 11.5083 7.07999 11.3891C7.0296 11.2651 7.0025 11.1329 7 10.9991C7.0011 10.7368 7.10526 10.4854 7.29001 10.2992C7.3825 10.2025 7.49516 10.1274 7.62 10.0792C7.80305 10.0039 8.00435 9.98449 8.19839 10.0237C8.39244 10.0628 8.57048 10.1587 8.70999 10.2992C8.89474 10.4854 8.9989 10.7368 9 10.9991C8.9975 11.1329 8.9704 11.2651 8.92001 11.3891C8.87127 11.5083 8.79994 11.6171 8.70999 11.7092C8.61655 11.8019 8.50575 11.8751 8.38391 11.9249C8.26207 11.9747 8.13161 11.9999 8 11.9991Z" fill="black"/>
</g>
<path d="M4.99951 16.5507V19.9006C4.99922 20.3108 5.11905 20.712 5.34418 21.0548C5.56931 21.3976 5.88994 21.6671 6.26642 21.8298C6.6429 21.9925 7.05875 22.0414 7.46271 21.9705C7.86666 21.8995 8.24103 21.7119 8.53955 21.4307L11.1495 18.9707H12.0195C17.5395 18.9707 22.0195 15.1707 22.0195 10.4707C22.0195 5.7707 17.5395 1.9707 12.0195 1.9707C6.49953 1.9707 2.01953 5.7807 2.01953 10.4707C2.042 11.6395 2.32261 12.7888 2.84125 13.8364C3.35989 14.8841 4.10373 15.8041 5.01953 16.5306L4.99951 16.5507Z" stroke="black" stroke-width="1.5" stroke-linecap="round" stroke-linejoin="round"/>
<defs>
<clipPath id="clip0_2346_31998">
<rect width="10" height="2" fill="white" transform="translate(7 10)"/>
</clipPath>
</defs>
</svg>
