<svg width="24" height="25" viewBox="0 0 24 25" fill="none" xmlns="http://www.w3.org/2000/svg">
<path d="M17.79 23.7324H6.21C3.47 23.7324 1.25 21.5024 1.25 18.7624V11.3524C1.25 9.9924 2.09 8.2824 3.17 7.4424L8.56 3.2424C10.18 1.9824 12.77 1.9224 14.45 3.1024L20.63 7.4324C21.82 8.2624 22.75 10.0424 22.75 11.4924V18.7724C22.75 21.5024 20.53 23.7324 17.79 23.7324ZM9.48 4.4224L4.09 8.6224C3.38 9.1824 2.75 10.4524 2.75 11.3524V18.7624C2.75 20.6724 4.3 22.2324 6.21 22.2324H17.79C19.7 22.2324 21.25 20.6824 21.25 18.7724V11.4924C21.25 10.5324 20.56 9.2024 19.77 8.6624L13.59 4.3324C12.45 3.5324 10.57 3.5724 9.48 4.4224Z" fill="black"/>
<path d="M12 19.7324C11.59 19.7324 11.25 19.3924 11.25 18.9824V15.9824C11.25 15.5724 11.59 15.2324 12 15.2324C12.41 15.2324 12.75 15.5724 12.75 15.9824V18.9824C12.75 19.3924 12.41 19.7324 12 19.7324Z" fill="black"/>
</svg>
