<svg width="64" height="64" viewBox="0 0 64 64" fill="none" xmlns="http://www.w3.org/2000/svg">
<circle cx="32" cy="32" r="32" fill="#38B6FF"/>
<rect width="32" height="32" transform="translate(16 16)" fill="#38B6FF"/>
<path d="M31.9994 46.3327C24.0927 46.3327 17.666 39.906 17.666 31.9994C17.666 24.0927 24.0927 17.666 31.9994 17.666C39.906 17.666 46.3327 24.0927 46.3327 31.9994C46.3327 39.906 39.906 46.3327 31.9994 46.3327ZM31.9994 19.666C25.1993 19.666 19.666 25.1993 19.666 31.9994C19.666 38.7994 25.1993 44.3327 31.9994 44.3327C38.7994 44.3327 44.3327 38.7994 44.3327 31.9994C44.3327 25.1993 38.7994 19.666 31.9994 19.666Z" fill="white"/>
<path d="M32 34.3327C31.4533 34.3327 31 33.8793 31 33.3327V26.666C31 26.1193 31.4533 25.666 32 25.666C32.5467 25.666 33 26.1193 33 26.666V33.3327C33 33.8793 32.5467 34.3327 32 34.3327Z" fill="white"/>
<path d="M31.9993 38.6659C31.826 38.6659 31.6527 38.6259 31.4927 38.5592C31.3327 38.4925 31.186 38.3992 31.0527 38.2792C30.9327 38.1459 30.8393 38.0125 30.7727 37.8392C30.706 37.6792 30.666 37.5059 30.666 37.3325C30.666 37.1592 30.706 36.9859 30.7727 36.8259C30.8393 36.6659 30.9327 36.5192 31.0527 36.3859C31.186 36.2659 31.3327 36.1725 31.4927 36.1059C31.8127 35.9725 32.186 35.9725 32.506 36.1059C32.666 36.1725 32.8127 36.2659 32.946 36.3859C33.066 36.5192 33.1593 36.6659 33.226 36.8259C33.2927 36.9859 33.3327 37.1592 33.3327 37.3325C33.3327 37.5059 33.2927 37.6792 33.226 37.8392C33.1593 38.0125 33.066 38.1459 32.946 38.2792C32.8127 38.3992 32.666 38.4925 32.506 38.5592C32.346 38.6259 32.1727 38.6659 31.9993 38.6659Z" fill="white"/>
</svg>
