<svg width="15" height="16" viewBox="0 0 15 16" fill="none" xmlns="http://www.w3.org/2000/svg">
<path d="M9.09083 13.8185C8.37792 13.8185 7.36896 13.317 6.57146 10.9185L6.13646 9.61346L4.83146 9.17846C2.43896 8.38096 1.9375 7.372 1.9375 6.65908C1.9375 5.95221 2.43896 4.93721 4.83146 4.13367L9.96083 2.42387C11.2417 1.99492 12.311 2.12179 12.9696 2.77429C13.6281 3.42679 13.755 4.50221 13.326 5.78304L11.6163 10.9124C10.8127 13.317 9.80375 13.8185 9.09083 13.8185ZM5.11542 4.99762C3.43583 5.5595 2.83771 6.22408 2.83771 6.65908C2.83771 7.09408 3.43583 7.75867 5.11542 8.3145L6.63792 8.822C6.77083 8.86429 6.87958 8.97304 6.92187 9.10596L7.42937 10.6285C7.98521 12.308 8.65583 12.9062 9.09083 12.9062C9.52583 12.9062 10.1904 12.308 10.7523 10.6285L12.4621 5.49908C12.7702 4.56867 12.7158 3.80742 12.3231 3.41471C11.9304 3.022 11.1692 2.97367 10.2448 3.28179L5.11542 4.99762Z" fill="white"/>
<path d="M6.60786 9.45065C6.49307 9.45065 6.37828 9.40836 6.28766 9.31773C6.11245 9.14253 6.11245 8.85253 6.28766 8.67732L8.45057 6.50836C8.62578 6.33315 8.91578 6.33315 9.09099 6.50836C9.2662 6.68357 9.2662 6.97357 9.09099 7.14878L6.92807 9.31773C6.84349 9.40836 6.72266 9.45065 6.60786 9.45065Z" fill="white"/>
</svg>
