<svg width="26" height="23" viewBox="0 0 26 23" fill="none" xmlns="http://www.w3.org/2000/svg">
<path d="M7.32083 1.88281H18.6792C19.4588 1.88281 20.1544 1.90683 20.7781 1.99079C24.1004 2.3626 25 3.92181 25 8.19167V15.7719C25 20.0418 24.1004 21.601 20.7781 21.9728C20.1544 22.0567 19.4708 22.0808 18.6792 22.0808H7.32083C6.54122 22.0808 5.84557 22.0567 5.22188 21.9728C1.89954 21.601 1 20.0418 1 15.7719V8.19167C1 3.92181 1.89954 2.3626 5.22188 1.99079C5.84557 1.90683 6.54122 1.88281 7.32083 1.88281Z" stroke="#292D32" stroke-width="1.7991" stroke-linecap="round" stroke-linejoin="round"/>
<path d="M14.9009 9.46289H19.3147" stroke="#292D32" stroke-width="1.7991" stroke-linecap="round" stroke-linejoin="round"/>
<path d="M6.69702 16.4082H6.721H19.3267" stroke="#292D32" stroke-width="1.7991" stroke-linecap="round" stroke-linejoin="round"/>
<path d="M7.24253 9.43759H7.2533" stroke="#292D32" stroke-width="2.3988" stroke-linecap="round" stroke-linejoin="round"/>
<path d="M11.2005 9.43759H11.2113" stroke="#292D32" stroke-width="2.3988" stroke-linecap="round" stroke-linejoin="round"/>
</svg>
