<svg width="25" height="24" viewBox="0 0 25 24" fill="none" xmlns="http://www.w3.org/2000/svg">
<path d="M16.5 2H8.5C4.5 2 2.5 4 2.5 8V21C2.5 21.55 2.95 22 3.5 22H16.5C20.5 22 22.5 20 22.5 16V8C22.5 4 20.5 2 16.5 2ZM16 12.75H13.25V15.5C13.25 15.91 12.91 16.25 12.5 16.25C12.09 16.25 11.75 15.91 11.75 15.5V12.75H9C8.59 12.75 8.25 12.41 8.25 12C8.25 11.59 8.59 11.25 9 11.25H11.75V8.5C11.75 8.09 12.09 7.75 12.5 7.75C12.91 7.75 13.25 8.09 13.25 8.5V11.25H16C16.41 11.25 16.75 11.59 16.75 12C16.75 12.41 16.41 12.75 16 12.75Z" fill="white"/>
</svg>
