<svg width="19" height="19" viewBox="0 0 19 19" fill="none" xmlns="http://www.w3.org/2000/svg">
<path d="M3.91602 16.25H14.416C15.2444 16.25 15.916 15.5784 15.916 14.75V4.25C15.916 3.42157 15.2444 2.75 14.416 2.75H3.91602C3.08759 2.75 2.41602 3.42157 2.41602 4.25V14.75C2.41602 15.5784 3.08759 16.25 3.91602 16.25ZM3.91602 16.25L12.166 8L15.916 11.75M7.66602 6.875C7.66602 7.49632 7.16234 8 6.54102 8C5.9197 8 5.41602 7.49632 5.41602 6.875C5.41602 6.25368 5.9197 5.75 6.54102 5.75C7.16234 5.75 7.66602 6.25368 7.66602 6.875Z" stroke="#1E1E1E" stroke-width="1.5" stroke-linecap="round" stroke-linejoin="round"/>
</svg>
