<svg width="64" height="63" viewBox="0 0 64 63" fill="none" xmlns="http://www.w3.org/2000/svg">
<path d="M32 59.7188C16.4338 59.7188 3.78125 47.0662 3.78125 31.5C3.78125 15.9338 16.4338 3.28125 32 3.28125C47.5662 3.28125 60.2188 15.9338 60.2188 31.5C60.2188 47.0662 47.5662 59.7188 32 59.7188ZM32 7.21875C18.6125 7.21875 7.71875 18.1125 7.71875 31.5C7.71875 44.8875 18.6125 55.7812 32 55.7812C45.3875 55.7812 56.2812 44.8875 56.2812 31.5C56.2812 18.1125 45.3875 7.21875 32 7.21875Z" fill="#38B6FF"/>
<path d="M32 36.0938C30.9237 36.0938 30.0312 35.2013 30.0312 34.125V21C30.0312 19.9237 30.9237 19.0312 32 19.0312C33.0763 19.0312 33.9688 19.9237 33.9688 21V34.125C33.9688 35.2013 33.0763 36.0938 32 36.0938Z" fill="#38B6FF"/>
<path d="M32 44.6275C31.6588 44.6275 31.3175 44.5488 31.0025 44.4175C30.6875 44.2863 30.3987 44.1025 30.1362 43.8662C29.9 43.6037 29.7162 43.3412 29.585 43C29.4537 42.685 29.375 42.3438 29.375 42.0025C29.375 41.6613 29.4537 41.32 29.585 41.005C29.7162 40.69 29.9 40.4013 30.1362 40.1388C30.3987 39.9025 30.6875 39.7188 31.0025 39.5875C31.6325 39.325 32.3675 39.325 32.9975 39.5875C33.3125 39.7188 33.6013 39.9025 33.8637 40.1388C34.1 40.4013 34.2838 40.69 34.415 41.005C34.5463 41.32 34.625 41.6613 34.625 42.0025C34.625 42.3438 34.5463 42.685 34.415 43C34.2838 43.3412 34.1 43.6037 33.8637 43.8662C33.6013 44.1025 33.3125 44.2863 32.9975 44.4175C32.6825 44.5488 32.3412 44.6275 32 44.6275Z" fill="#38B6FF"/>
</svg>
