<svg width="19" height="19" viewBox="0 0 19 19" fill="none" xmlns="http://www.w3.org/2000/svg">
<path d="M8.49242 11.09C8.30042 11.09 8.10858 11.0165 7.96233 10.8702C6.65583 9.563 6.49904 7.53799 7.58879 6.05599C7.66679 5.93299 7.79734 5.7755 7.96159 5.6105L10.4815 3.08975C11.185 2.387 12.1188 2 13.1118 2C14.1041 2 15.0377 2.387 15.7412 3.08975C17.1917 4.54025 17.1917 6.90051 15.7412 8.35026L14.3613 9.73026C14.0681 10.0235 13.594 10.0235 13.3008 9.73026C13.0075 9.43776 13.0075 8.963 13.3008 8.66975L14.6808 7.28976C15.5456 6.42426 15.5456 5.01575 14.6808 4.15025C13.8416 3.31175 12.382 3.31175 11.542 4.15025L9.02269 6.67024C8.93494 6.75799 8.86757 6.83901 8.82182 6.90876C8.14907 7.82601 8.24344 9.03125 9.02269 9.80975C9.31594 10.103 9.31594 10.5777 9.02269 10.8702C8.87644 11.0165 8.68442 11.09 8.49242 11.09ZM8.18352 15.9102L10.7027 13.3903C11.1047 12.9883 11.4085 12.503 11.5757 12.0035C12.0572 10.6625 11.7144 9.14225 10.7027 8.12975C10.4094 7.8365 9.93557 7.8365 9.64232 8.129C9.34907 8.4215 9.34907 8.897 9.64232 9.1895C10.2543 9.803 10.4546 10.6865 10.1583 11.5115C10.0593 11.8078 9.88082 12.0898 9.64232 12.329L7.12297 14.849C6.28372 15.6882 4.82418 15.6875 3.98418 14.849C3.11943 13.9835 3.11943 12.575 3.98418 11.7095L5.36424 10.3295C5.65749 10.0362 5.65749 9.56149 5.36424 9.26899C5.07099 8.97574 4.59695 8.97574 4.3037 9.26899L2.92381 10.649C1.47331 12.0995 1.47331 14.459 2.92381 15.9095C3.62731 16.6122 4.56096 16.9992 5.55321 16.9992C6.54621 17 7.48002 16.613 8.18352 15.9102Z" fill="black"/>
</svg>
