<svg width="16" height="16" viewBox="0 0 16 16" fill="none" xmlns="http://www.w3.org/2000/svg">
<path d="M7.25281 9.41398C7.08214 9.41398 6.91162 9.34865 6.78162 9.21865C5.62028 8.05665 5.48092 6.25664 6.44958 4.93931C6.51892 4.82998 6.63496 4.68998 6.78096 4.54331L9.02087 2.30265C9.64621 1.67799 10.4763 1.33398 11.3589 1.33398C12.2409 1.33398 13.0708 1.67799 13.6962 2.30265C14.9855 3.59199 14.9855 5.68999 13.6962 6.97866L12.4696 8.20532C12.2089 8.46599 11.7876 8.46599 11.5269 8.20532C11.2662 7.94532 11.2662 7.52332 11.5269 7.26265L12.7536 6.03599C13.5223 5.26666 13.5223 4.01465 12.7536 3.24532C12.0076 2.49999 10.7102 2.49999 9.96358 3.24532L7.72416 5.48531C7.64616 5.56331 7.58628 5.63533 7.54561 5.69733C6.94761 6.51266 7.03149 7.58398 7.72416 8.27598C7.98483 8.53665 7.98483 8.95865 7.72416 9.21865C7.59416 9.34865 7.42347 9.41398 7.25281 9.41398ZM6.97823 13.6986L9.21749 11.4587C9.57482 11.1013 9.84486 10.67 9.99353 10.226C10.4215 9.03399 10.1168 7.68265 9.21749 6.78265C8.95682 6.52199 8.53561 6.52198 8.27494 6.78198C8.01428 7.04198 8.01428 7.46465 8.27494 7.72465C8.81894 8.26998 8.99693 9.05532 8.7336 9.78866C8.6456 10.052 8.48694 10.3027 8.27494 10.5153L6.03552 12.7553C5.28952 13.5013 3.99215 13.5006 3.24548 12.7553C2.47682 11.986 2.47682 10.734 3.24548 9.96466L4.47221 8.73798C4.73287 8.47731 4.73287 8.05531 4.47221 7.79531C4.21154 7.53464 3.79017 7.53464 3.5295 7.79531L2.30294 9.02199C1.0136 10.3113 1.0136 12.4086 2.30294 13.698C2.92827 14.3226 3.75818 14.6666 4.64018 14.6666C5.52284 14.6673 6.3529 14.3233 6.97823 13.6986Z" fill="#818181"/>
</svg>
