<svg width="24" height="25" viewBox="0 0 24 25" fill="none" xmlns="http://www.w3.org/2000/svg">
<path d="M5.98959 5.91108C6.28249 6.20397 6.28249 6.67884 5.98959 6.97174C2.67014 10.2912 2.67014 15.6731 5.98959 18.9926C6.28249 19.2854 6.28249 19.7603 5.98959 20.0532C5.6967 20.3461 5.22183 20.3461 4.92893 20.0532C1.02369 16.148 1.02369 9.81632 4.92893 5.91108C5.22183 5.61818 5.6967 5.61818 5.98959 5.91108ZM19.0711 5.91108C22.9763 9.81632 22.9763 16.148 19.0711 20.0532C18.7782 20.3461 18.3033 20.3461 18.0104 20.0532C17.7175 19.7603 17.7175 19.2854 18.0104 18.9926C21.3299 15.6731 21.3299 10.2912 18.0104 6.97174C17.7175 6.67884 17.7175 6.20397 18.0104 5.91108C18.3033 5.61818 18.7782 5.61818 19.0711 5.91108ZM8.81802 8.7395C9.11091 9.0324 9.11091 9.50727 8.81802 9.80016C7.06066 11.5575 7.06066 14.4068 8.81802 16.1641C9.11091 16.457 9.11091 16.9319 8.81802 17.2248C8.52513 17.5177 8.05025 17.5177 7.75736 17.2248C5.41421 14.8816 5.41421 11.0826 7.75736 8.7395C8.05025 8.44661 8.52513 8.44661 8.81802 8.7395ZM16.2426 8.7395C18.5858 11.0826 18.5858 14.8816 16.2426 17.2248C15.9497 17.5177 15.4749 17.5177 15.182 17.2248C14.8891 16.9319 14.8891 16.457 15.182 16.1641C16.9393 14.4068 16.9393 11.5575 15.182 9.80016C14.8891 9.50727 14.8891 9.0324 15.182 8.7395C15.4749 8.44661 15.9497 8.44661 16.2426 8.7395ZM12 11.4821C12.8284 11.4821 13.5 12.1537 13.5 12.9821C13.5 13.8106 12.8284 14.4821 12 14.4821C11.1716 14.4821 10.5 13.8106 10.5 12.9821C10.5 12.1537 11.1716 11.4821 12 11.4821Z" fill="black"/>
</svg>
