<svg width="24" height="25" viewBox="0 0 24 25" fill="none" xmlns="http://www.w3.org/2000/svg">
<path d="M19 11.7324H17C14.58 11.7324 13.25 10.4024 13.25 7.98242V5.98242C13.25 3.56242 14.58 2.23242 17 2.23242H19C21.42 2.23242 22.75 3.56242 22.75 5.98242V7.98242C22.75 10.4024 21.42 11.7324 19 11.7324ZM17 3.73242C15.42 3.73242 14.75 4.40242 14.75 5.98242V7.98242C14.75 9.56242 15.42 10.2324 17 10.2324H19C20.58 10.2324 21.25 9.56242 21.25 7.98242V5.98242C21.25 4.40242 20.58 3.73242 19 3.73242H17Z" fill="#292D32"/>
<path d="M7 23.7324H5C2.58 23.7324 1.25 22.4024 1.25 19.9824V17.9824C1.25 15.5624 2.58 14.2324 5 14.2324H7C9.42 14.2324 10.75 15.5624 10.75 17.9824V19.9824C10.75 22.4024 9.42 23.7324 7 23.7324ZM5 15.7324C3.42 15.7324 2.75 16.4024 2.75 17.9824V19.9824C2.75 21.5624 3.42 22.2324 5 22.2324H7C8.58 22.2324 9.25 21.5624 9.25 19.9824V17.9824C9.25 16.4024 8.58 15.7324 7 15.7324H5Z" fill="#292D32"/>
<path d="M6 11.7324C3.38 11.7324 1.25 9.60242 1.25 6.98242C1.25 4.36242 3.38 2.23242 6 2.23242C8.62 2.23242 10.75 4.36242 10.75 6.98242C10.75 9.60242 8.62 11.7324 6 11.7324ZM6 3.73242C4.21 3.73242 2.75 5.19242 2.75 6.98242C2.75 8.77242 4.21 10.2324 6 10.2324C7.79 10.2324 9.25 8.77242 9.25 6.98242C9.25 5.19242 7.79 3.73242 6 3.73242Z" fill="#292D32"/>
<path d="M18 23.7324C15.38 23.7324 13.25 21.6024 13.25 18.9824C13.25 16.3624 15.38 14.2324 18 14.2324C20.62 14.2324 22.75 16.3624 22.75 18.9824C22.75 21.6024 20.62 23.7324 18 23.7324ZM18 15.7324C16.21 15.7324 14.75 17.1924 14.75 18.9824C14.75 20.7724 16.21 22.2324 18 22.2324C19.79 22.2324 21.25 20.7724 21.25 18.9824C21.25 17.1924 19.79 15.7324 18 15.7324Z" fill="#292D32"/>
</svg>
