<svg width="64" height="64" viewBox="0 0 64 64" fill="none" xmlns="http://www.w3.org/2000/svg">
<circle cx="32" cy="32" r="32" fill="#38B6FF"/>
<rect width="32" height="32" transform="translate(16 16)" fill="#38B6FF"/>
<path d="M36.3194 45.6933H36.146C30.226 45.6933 27.3727 43.36 26.8794 38.1333C26.826 37.5866 27.226 37.0933 27.786 37.04C28.3194 36.9866 28.826 37.4 28.8794 37.9466C29.266 42.1333 31.2394 43.6933 36.1594 43.6933H36.3327C41.7594 43.6933 43.6794 41.7733 43.6794 36.3466V27.6533C43.6794 22.2266 41.7594 20.3066 36.3327 20.3066H36.1594C31.2127 20.3066 29.2394 21.8933 28.8794 26.16C28.8127 26.7066 28.346 27.12 27.786 27.0666C27.226 27.0266 26.826 26.5333 26.866 25.9866C27.3194 20.68 30.186 18.3066 36.146 18.3066H36.3194C42.866 18.3066 45.666 21.1066 45.666 27.6533V36.3466C45.666 42.8933 42.866 45.6933 36.3194 45.6933Z" fill="white"/>
<path d="M36.0015 33H20.8281C20.2815 33 19.8281 32.5467 19.8281 32C19.8281 31.4533 20.2815 31 20.8281 31H36.0015C36.5481 31 37.0015 31.4533 37.0015 32C37.0015 32.5467 36.5481 33 36.0015 33Z" fill="white"/>
<path d="M23.7993 37.4671C23.5459 37.4671 23.2926 37.3738 23.0926 37.1738L18.6259 32.7071C18.2393 32.3204 18.2393 31.6804 18.6259 31.2938L23.0926 26.8271C23.4793 26.4404 24.1193 26.4404 24.5059 26.8271C24.8926 27.2138 24.8926 27.8538 24.5059 28.2404L20.7459 32.0004L24.5059 35.7604C24.8926 36.1471 24.8926 36.7871 24.5059 37.1738C24.3193 37.3738 24.0526 37.4671 23.7993 37.4671Z" fill="white"/>
</svg>
