<svg width="16" height="13" viewBox="0 0 16 13" fill="none" xmlns="http://www.w3.org/2000/svg">
<path d="M11.6462 11.6594C11.6462 10.4466 10.0076 9.46348 7.98628 9.46348C5.96497 9.46348 4.32637 10.4466 4.32637 11.6594M14.5741 9.46376C14.5741 8.56328 13.6708 7.78939 12.3782 7.45053M1.39844 9.46376C1.39844 8.56328 2.30177 7.78939 3.59439 7.45053M12.3782 4.51243C12.8274 4.11033 13.1102 3.526 13.1102 2.87564C13.1102 1.66285 12.127 0.679688 10.9142 0.679688C10.3518 0.679688 9.83875 0.891123 9.45025 1.23884M3.59439 4.51243C3.14513 4.11033 2.8624 3.526 2.8624 2.87564C2.8624 1.66285 3.84556 0.679688 5.05835 0.679688C5.62077 0.679688 6.13381 0.891123 6.52232 1.23884M7.98628 7.26753C6.77349 7.26753 5.79033 6.28437 5.79033 5.07158C5.79033 3.8588 6.77349 2.87564 7.98628 2.87564C9.19907 2.87564 10.1822 3.8588 10.1822 5.07158C10.1822 6.28437 9.19907 7.26753 7.98628 7.26753Z" stroke="#202020" stroke-width="1.10529" stroke-linecap="round" stroke-linejoin="round"/>
</svg>
