<svg width="20" height="20" viewBox="0 0 20 20" fill="none" xmlns="http://www.w3.org/2000/svg">
<path d="M7.70768 4.16667C7.70768 2.9 8.73268 1.875 9.99935 1.875C11.266 1.875 12.291 2.9 12.291 4.16667C12.291 5.43333 11.266 6.45833 9.99935 6.45833C8.73268 6.45833 7.70768 5.43333 7.70768 4.16667ZM11.041 4.16667C11.041 3.59167 10.5743 3.125 9.99935 3.125C9.42435 3.125 8.95768 3.59167 8.95768 4.16667C8.95768 4.74167 9.42435 5.20833 9.99935 5.20833C10.5743 5.20833 11.041 4.74167 11.041 4.16667Z" fill="black"/>
<path d="M7.70768 15.8327C7.70768 14.566 8.73268 13.541 9.99935 13.541C11.266 13.541 12.291 14.566 12.291 15.8327C12.291 17.0993 11.266 18.1243 9.99935 18.1243C8.73268 18.1243 7.70768 17.0993 7.70768 15.8327ZM11.041 15.8327C11.041 15.2577 10.5743 14.791 9.99935 14.791C9.42435 14.791 8.95768 15.2577 8.95768 15.8327C8.95768 16.4077 9.42435 16.8743 9.99935 16.8743C10.5743 16.8743 11.041 16.4077 11.041 15.8327Z" fill="black"/>
<path d="M7.70768 10.0007C7.70768 8.73398 8.73268 7.70898 9.99935 7.70898C11.266 7.70898 12.291 8.73398 12.291 10.0007C12.291 11.2673 11.266 12.2923 9.99935 12.2923C8.73268 12.2923 7.70768 11.2673 7.70768 10.0007ZM11.041 10.0007C11.041 9.42565 10.5743 8.95898 9.99935 8.95898C9.42435 8.95898 8.95768 9.42565 8.95768 10.0007C8.95768 10.5757 9.42435 11.0423 9.99935 11.0423C10.5743 11.0423 11.041 10.5757 11.041 10.0007Z" fill="black"/>
</svg>
