<svg width="12" height="13" viewBox="0 0 12 13" fill="none" xmlns="http://www.w3.org/2000/svg">
<path d="M7.45 11.875H4.55C4.105 11.875 3.535 11.64 3.225 11.325L1.175 9.27499C0.860003 8.95999 0.625 8.39 0.625 7.95V5.05C0.625 4.605 0.860003 4.03501 1.175 3.72501L3.225 1.675C3.54 1.36 4.11 1.125 4.55 1.125H7.45C7.895 1.125 8.465 1.36 8.775 1.675L10.825 3.72501C11.14 4.04001 11.375 4.61 11.375 5.05V7.95C11.375 8.395 11.14 8.96499 10.825 9.27499L8.775 11.325C8.46 11.64 7.895 11.875 7.45 11.875ZM4.55 1.875C4.305 1.875 3.925 2.03 3.755 2.205L1.705 4.255C1.535 4.43 1.375 4.805 1.375 5.05V7.95C1.375 8.195 1.53 8.575 1.705 8.745L3.755 10.795C3.93 10.965 4.305 11.125 4.55 11.125H7.45C7.695 11.125 8.075 10.97 8.245 10.795L10.295 8.745C10.465 8.56999 10.625 8.195 10.625 7.95V5.05C10.625 4.805 10.47 4.425 10.295 4.255L8.245 2.205C8.07 2.035 7.695 1.875 7.45 1.875H4.55Z" fill="#EA4335"/>
<path d="M4.24997 8.6257C4.15497 8.6257 4.05997 8.5907 3.98497 8.5157C3.83997 8.3707 3.83997 8.1307 3.98497 7.9857L7.48497 4.4857C7.62997 4.3407 7.86997 4.3407 8.01497 4.4857C8.15997 4.6307 8.15997 4.8707 8.01497 5.0157L4.51497 8.5157C4.43997 8.5907 4.34497 8.6257 4.24997 8.6257Z" fill="#EA4335"/>
<path d="M7.74997 8.6257C7.65497 8.6257 7.55997 8.5907 7.48497 8.5157L3.98497 5.0157C3.83997 4.8707 3.83997 4.6307 3.98497 4.4857C4.12997 4.3407 4.36997 4.3407 4.51497 4.4857L8.01497 7.9857C8.15997 8.1307 8.15997 8.3707 8.01497 8.5157C7.93997 8.5907 7.84497 8.6257 7.74997 8.6257Z" fill="#EA4335"/>
</svg>
