<svg width="21" height="20" viewBox="0 0 21 20" fill="none" xmlns="http://www.w3.org/2000/svg">
<path d="M12.3266 17.8679C11.3803 17.8679 10.0412 17.2023 8.98264 14.0188L8.40527 12.2867L6.67316 11.7093C3.49761 10.6508 2.83203 9.31159 2.83203 8.36535C2.83203 7.42712 3.49761 6.07992 6.67316 5.01338L13.4813 2.74399C15.1814 2.17464 16.6007 2.34304 17.4748 3.2091C18.3489 4.07516 18.5173 5.50255 17.9479 7.20258L15.6785 14.0108C14.612 17.2023 13.2728 17.8679 12.3266 17.8679ZM7.05005 6.16011C4.82075 6.90588 4.02687 7.78797 4.02687 8.36535C4.02687 8.94272 4.82075 9.82481 7.05005 10.5626L9.07085 11.2362C9.24727 11.2923 9.39161 11.4366 9.44775 11.6131L10.1213 13.6339C10.8591 15.8632 11.7492 16.657 12.3266 16.657C12.904 16.657 13.7861 15.8632 14.5318 13.6339L16.8012 6.82569C17.2102 5.59076 17.138 4.58036 16.6168 4.05912C16.0955 3.53788 15.0851 3.47373 13.8582 3.8827L7.05005 6.16011Z" fill="#38B6FF"/>
<path d="M9.03106 12.0699C8.8787 12.0699 8.72634 12.0138 8.60605 11.8935C8.3735 11.661 8.3735 11.276 8.60605 11.0435L11.4769 8.16465C11.7094 7.9321 12.0943 7.9321 12.3269 8.16465C12.5594 8.3972 12.5594 8.78212 12.3269 9.01467L9.45607 11.8935C9.34381 12.0138 9.18343 12.0699 9.03106 12.0699Z" fill="#38B6FF"/>
</svg>
