<svg width="24" height="25" viewBox="0 0 24 25" fill="none" xmlns="http://www.w3.org/2000/svg">
<path d="M12 16.7324C9.93 16.7324 8.25 15.0524 8.25 12.9824C8.25 10.9124 9.93 9.23242 12 9.23242C14.07 9.23242 15.75 10.9124 15.75 12.9824C15.75 15.0524 14.07 16.7324 12 16.7324ZM12 10.7324C10.76 10.7324 9.75 11.7424 9.75 12.9824C9.75 14.2224 10.76 15.2324 12 15.2324C13.24 15.2324 14.25 14.2224 14.25 12.9824C14.25 11.7424 13.24 10.7324 12 10.7324Z" fill="#292D32"/>
<path d="M15.21 23.1727C15 23.1727 14.79 23.1427 14.58 23.0927C13.96 22.9227 13.44 22.5327 13.11 21.9827L12.99 21.7827C12.4 20.7627 11.59 20.7627 11 21.7827L10.89 21.9727C10.56 22.5327 10.04 22.9327 9.42 23.0927C8.79 23.2627 8.14 23.1727 7.59 22.8427L5.87 21.8527C5.26 21.5027 4.82 20.9327 4.63 20.2427C4.45 19.5527 4.54 18.8427 4.89 18.2327C5.18 17.7227 5.26 17.2627 5.09 16.9727C4.92 16.6827 4.49 16.5127 3.9 16.5127C2.44 16.5127 1.25 15.3227 1.25 13.8627V12.1027C1.25 10.6427 2.44 9.45271 3.9 9.45271C4.49 9.45271 4.92 9.28271 5.09 8.99271C5.26 8.70271 5.19 8.24271 4.89 7.73271C4.54 7.12271 4.45 6.40271 4.63 5.72271C4.81 5.03271 5.25 4.46271 5.87 4.11271L7.6 3.12271C8.73 2.45271 10.22 2.84271 10.9 3.99271L11.02 4.19271C11.61 5.21271 12.42 5.21271 13.01 4.19271L13.12 4.00271C13.8 2.84271 15.29 2.45271 16.43 3.13271L18.15 4.12271C18.76 4.47271 19.2 5.04271 19.39 5.73271C19.57 6.42271 19.48 7.13271 19.13 7.74271C18.84 8.25271 18.76 8.71271 18.93 9.00271C19.1 9.29271 19.53 9.46271 20.12 9.46271C21.58 9.46271 22.77 10.6527 22.77 12.1127V13.8727C22.77 15.3327 21.58 16.5227 20.12 16.5227C19.53 16.5227 19.1 16.6927 18.93 16.9827C18.76 17.2727 18.83 17.7327 19.13 18.2427C19.48 18.8527 19.58 19.5727 19.39 20.2527C19.21 20.9427 18.77 21.5127 18.15 21.8627L16.42 22.8527C16.04 23.0627 15.63 23.1727 15.21 23.1727ZM12 19.4727C12.89 19.4727 13.72 20.0327 14.29 21.0227L14.4 21.2127C14.52 21.4227 14.72 21.5727 14.96 21.6327C15.2 21.6927 15.44 21.6627 15.64 21.5427L17.37 20.5427C17.63 20.3927 17.83 20.1427 17.91 19.8427C17.99 19.5427 17.95 19.2327 17.8 18.9727C17.23 17.9927 17.16 16.9827 17.6 16.2127C18.04 15.4427 18.95 15.0027 20.09 15.0027C20.73 15.0027 21.24 14.4927 21.24 13.8527V12.0927C21.24 11.4627 20.73 10.9427 20.09 10.9427C18.95 10.9427 18.04 10.5027 17.6 9.73271C17.16 8.96271 17.23 7.95271 17.8 6.97271C17.95 6.71271 17.99 6.40271 17.91 6.10271C17.83 5.80271 17.64 5.56271 17.38 5.40271L15.65 4.41271C15.22 4.15271 14.65 4.30271 14.39 4.74271L14.28 4.93271C13.71 5.92271 12.88 6.48271 11.99 6.48271C11.1 6.48271 10.27 5.92271 9.7 4.93271L9.59 4.73271C9.34 4.31271 8.78 4.16271 8.35 4.41271L6.62 5.41271C6.36 5.56271 6.16 5.81271 6.08 6.11271C6 6.41271 6.04 6.72271 6.19 6.98271C6.76 7.96271 6.83 8.97271 6.39 9.74271C5.95 10.5127 5.04 10.9527 3.9 10.9527C3.26 10.9527 2.75 11.4627 2.75 12.1027V13.8627C2.75 14.4927 3.26 15.0127 3.9 15.0127C5.04 15.0127 5.95 15.4527 6.39 16.2227C6.83 16.9927 6.76 18.0027 6.19 18.9827C6.04 19.2427 6 19.5527 6.08 19.8527C6.16 20.1527 6.35 20.3927 6.61 20.5527L8.34 21.5427C8.55 21.6727 8.8 21.7027 9.03 21.6427C9.27 21.5827 9.47 21.4227 9.6 21.2127L9.71 21.0227C10.28 20.0427 11.11 19.4727 12 19.4727Z" fill="#292D32"/>
</svg>
