<svg width="24" height="25" viewBox="0 0 24 25" fill="none" xmlns="http://www.w3.org/2000/svg">
<path fill-rule="evenodd" clip-rule="evenodd" d="M11.448 5.23242H12.552C13.4505 5.23239 14.1997 5.23237 14.7945 5.31233C15.4223 5.39674 15.9891 5.58241 16.4445 6.03788C16.9 6.49335 17.0857 7.06015 17.1701 7.68794C17.2501 8.28271 17.25 9.03191 17.25 9.93037V16.0344C17.25 16.9329 17.2501 17.6821 17.1701 18.2769C17.0857 18.9047 16.9 19.4715 16.4445 19.9269C15.9891 20.3824 15.4223 20.5681 14.7945 20.6525C14.1997 20.7325 13.4505 20.7324 12.552 20.7324H11.448C10.5495 20.7324 9.8003 20.7325 9.20552 20.6525C8.57773 20.5681 8.01093 20.3824 7.55546 19.9269C7.09999 19.4715 6.91432 18.9047 6.82991 18.2769C6.74995 17.6821 6.74997 16.9329 6.75 16.0344V9.93042C6.74997 9.03194 6.74995 8.28273 6.82991 7.68794C6.91432 7.06015 7.09999 6.49335 7.55546 6.03788C8.01093 5.58241 8.57773 5.39674 9.20552 5.31233C9.8003 5.23237 10.5495 5.23239 11.448 5.23242ZM9.40539 6.79896C8.94393 6.861 8.74644 6.96822 8.61612 7.09854C8.4858 7.22886 8.37858 7.42635 8.31654 7.88782C8.2516 8.37085 8.25 9.01841 8.25 9.98242V15.9824C8.25 16.9464 8.2516 17.594 8.31654 18.077C8.37858 18.5385 8.4858 18.736 8.61612 18.8663C8.74644 18.9966 8.94393 19.1038 9.40539 19.1659C9.88843 19.2308 10.536 19.2324 11.5 19.2324H12.5C13.464 19.2324 14.1116 19.2308 14.5946 19.1659C15.0561 19.1038 15.2536 18.9966 15.3839 18.8663C15.5142 18.736 15.6214 18.5385 15.6835 18.077C15.7484 17.594 15.75 16.9464 15.75 15.9824V9.98242C15.75 9.01841 15.7484 8.37085 15.6835 7.88782C15.6214 7.42635 15.5142 7.22886 15.3839 7.09854C15.2536 6.96822 15.0561 6.861 14.5946 6.79896C14.1116 6.73402 13.464 6.73242 12.5 6.73242H11.5C10.536 6.73242 9.88843 6.73402 9.40539 6.79896Z" fill="#1C274C"/>
<path d="M21.5 6.73242C20.5335 6.73242 19.75 7.51592 19.75 8.48242V17.4824C19.75 18.4489 20.5335 19.2324 21.5 19.2324H22C22.4142 19.2324 22.75 19.5682 22.75 19.9824C22.75 20.3966 22.4142 20.7324 22 20.7324H21.5C19.7051 20.7324 18.25 19.2773 18.25 17.4824V8.48242C18.25 6.6875 19.7051 5.23242 21.5 5.23242H22C22.4142 5.23242 22.75 5.56821 22.75 5.98242C22.75 6.39663 22.4142 6.73242 22 6.73242H21.5Z" fill="#1C274C"/>
<path d="M2 5.23242C1.58579 5.23242 1.25 5.56821 1.25 5.98242C1.25 6.39663 1.58579 6.73242 2 6.73242H2.5C3.4665 6.73242 4.25 7.51592 4.25 8.48242V17.4824C4.25 18.4489 3.4665 19.2324 2.5 19.2324H2C1.58579 19.2324 1.25 19.5682 1.25 19.9824C1.25 20.3966 1.58579 20.7324 2 20.7324H2.5C4.29493 20.7324 5.75 19.2773 5.75 17.4824V8.48242C5.75 6.6875 4.29493 5.23242 2.5 5.23242H2Z" fill="#1C274C"/>
</svg>
