<svg width="19" height="20" viewBox="0 0 19 20" fill="none" xmlns="http://www.w3.org/2000/svg">
<path d="M18.6632 9.19272C18.6632 9.91049 18.5763 10.6207 18.4025 11.3234C18.2363 12.0185 17.9794 12.6494 17.6319 13.216C17.2843 13.7751 16.8461 14.2247 16.3172 14.5647C15.7959 14.8971 15.1763 15.0633 14.4586 15.0633C13.8919 15.0633 13.3895 14.9273 12.9512 14.6554C12.5206 14.3834 12.2184 14.032 12.0446 13.6014H11.8633C11.5459 13.9867 11.1304 14.3267 10.6166 14.6214C10.1028 14.916 9.47949 15.0633 8.74661 15.0633C7.36395 15.0633 6.29862 14.6516 5.55063 13.828C4.80263 12.9969 4.42863 11.9089 4.42863 10.564C4.42863 9.52138 4.65152 8.60339 5.0973 7.81006C5.54307 7.00917 6.17773 6.38207 7.00128 5.92874C7.82484 5.47541 8.79572 5.24874 9.91393 5.24874C10.6468 5.24874 11.3986 5.31674 12.1693 5.45274C12.9475 5.58118 13.5557 5.72096 13.9939 5.87207L13.7672 10.632C13.7521 10.7907 13.7408 10.9494 13.7332 11.108C13.7332 11.2667 13.7332 11.3687 13.7332 11.414C13.7332 12.0563 13.8201 12.4831 13.9939 12.6947C14.1752 12.8987 14.3755 13.0007 14.5946 13.0007C14.9421 13.0007 15.233 12.8269 15.4672 12.4794C15.7015 12.1318 15.879 11.6671 15.9999 11.0854C16.1208 10.5036 16.1812 9.86516 16.1812 9.17005C16.1812 7.87806 15.9168 6.77873 15.3879 5.87207C14.8666 4.95785 14.1488 4.26275 13.2346 3.78675C12.3279 3.3032 11.2966 3.06142 10.1406 3.06142C8.92416 3.06142 7.85128 3.25409 6.92195 3.63942C5.99262 4.02475 5.21063 4.56497 4.57597 5.26007C3.94886 5.95518 3.47286 6.77495 3.14797 7.71939C2.83064 8.66383 2.67198 9.69516 2.67198 10.8134C2.67198 12.2036 2.92131 13.3822 3.41997 14.3494C3.91864 15.3165 4.65152 16.0493 5.61863 16.548C6.59329 17.0467 7.78328 17.296 9.1886 17.296C10.0877 17.296 11.0208 17.1978 11.9879 17.0013C12.9626 16.7973 13.8541 16.5442 14.6626 16.242V18.4293C13.9221 18.7391 13.0948 18.9847 12.1806 19.166C11.2664 19.3549 10.2993 19.4493 9.27927 19.4493C7.36017 19.4493 5.72063 19.1093 4.36063 18.4293C3.00064 17.7493 1.95798 16.7709 1.23265 15.494C0.51488 14.2096 0.155993 12.672 0.155993 10.8814C0.155993 9.47605 0.386436 8.17272 0.847322 6.9714C1.31576 5.76252 1.98443 4.70852 2.85331 3.80942C3.72219 2.90276 4.76863 2.19632 5.99262 1.6901C7.22417 1.18388 8.59927 0.930767 10.1179 0.930767C11.7726 0.930767 13.2421 1.26699 14.5266 1.93943C15.8186 2.60431 16.831 3.55253 17.5639 4.78408C18.2968 6.01563 18.6632 7.48517 18.6632 9.19272ZM7.05795 10.6094C7.05795 11.4556 7.23173 12.0676 7.57928 12.4454C7.93439 12.8156 8.41039 13.0007 9.00727 13.0007C9.78549 13.0007 10.3333 12.7174 10.6506 12.1507C10.9679 11.584 11.153 10.8436 11.2059 9.92938L11.3533 7.42473C11.1795 7.38695 10.983 7.36051 10.7639 7.3454C10.5448 7.32273 10.3068 7.3114 10.0499 7.3114C9.31705 7.3114 8.7315 7.47384 8.29328 7.79873C7.85506 8.11606 7.53773 8.52783 7.34128 9.03405C7.15239 9.53272 7.05795 10.0578 7.05795 10.6094Z" fill="black"/>
</svg>
