<svg width="24" height="25" viewBox="0 0 24 25" fill="none" xmlns="http://www.w3.org/2000/svg">
<path d="M18.0001 8.14243C17.9401 8.13243 17.8701 8.13243 17.8101 8.14243C16.4301 8.09243 15.3301 6.96242 15.3301 5.56242C15.3301 4.13242 16.4801 2.98242 17.9101 2.98242C19.3401 2.98242 20.4901 4.14242 20.4901 5.56242C20.4801 6.96242 19.3801 8.09243 18.0001 8.14243Z" stroke="#292D32" stroke-width="1.5" stroke-linecap="round" stroke-linejoin="round"/>
<path d="M16.9702 15.4226C18.3402 15.6526 19.8502 15.4126 20.9102 14.7026C22.3202 13.7626 22.3202 12.2226 20.9102 11.2826C19.8402 10.5726 18.3102 10.3326 16.9402 10.5726" stroke="#292D32" stroke-width="1.5" stroke-linecap="round" stroke-linejoin="round"/>
<path d="M5.96998 8.14243C6.02998 8.13243 6.09998 8.13243 6.15998 8.14243C7.53998 8.09243 8.63998 6.96242 8.63998 5.56242C8.63998 4.13242 7.48998 2.98242 6.05998 2.98242C4.62998 2.98242 3.47998 4.14242 3.47998 5.56242C3.48998 6.96242 4.58998 8.09243 5.96998 8.14243Z" stroke="#292D32" stroke-width="1.5" stroke-linecap="round" stroke-linejoin="round"/>
<path d="M6.99994 15.4226C5.62994 15.6526 4.11994 15.4126 3.05994 14.7026C1.64994 13.7626 1.64994 12.2226 3.05994 11.2826C4.12994 10.5726 5.65994 10.3326 7.02994 10.5726" stroke="#292D32" stroke-width="1.5" stroke-linecap="round" stroke-linejoin="round"/>
<path d="M12.0001 15.6131C11.9401 15.6031 11.8701 15.6031 11.8101 15.6131C10.4301 15.5631 9.33008 14.4331 9.33008 13.0331C9.33008 11.6031 10.4801 10.4531 11.9101 10.4531C13.3401 10.4531 14.4901 11.6131 14.4901 13.0331C14.4801 14.4331 13.3801 15.5731 12.0001 15.6131Z" stroke="#292D32" stroke-width="1.5" stroke-linecap="round" stroke-linejoin="round"/>
<path d="M9.08997 18.7637C7.67997 19.7037 7.67997 21.2437 9.08997 22.1837C10.69 23.2537 13.31 23.2537 14.91 22.1837C16.32 21.2437 16.32 19.7037 14.91 18.7637C13.32 17.7038 10.69 17.7038 9.08997 18.7637Z" stroke="#292D32" stroke-width="1.5" stroke-linecap="round" stroke-linejoin="round"/>
</svg>
