<svg width="50" height="26" viewBox="0 0 50 26" fill="none" xmlns="http://www.w3.org/2000/svg">
<rect y="0.5" width="50" height="25" rx="12.5" fill="black"/>
<path d="M6.92037 11.127V10.3277C7.67332 10.2544 8.19845 10.1327 8.49577 9.96284C8.79308 9.78908 9.01511 9.38172 9.16184 8.74075H9.98429V17H8.87224V11.127H6.92037ZM15.614 12.1811C16.0735 12.1811 16.4326 12.0537 16.6913 11.7989C16.95 11.5402 17.0794 11.2332 17.0794 10.878C17.0794 10.5691 16.9558 10.2853 16.7087 10.0265C16.4616 9.76784 16.0851 9.63849 15.5793 9.63849C15.0773 9.63849 14.7143 9.76784 14.4904 10.0265C14.2664 10.2853 14.1545 10.5884 14.1545 10.9359C14.1545 11.3259 14.2993 11.6309 14.5888 11.851C14.8784 12.0711 15.2202 12.1811 15.614 12.1811ZM15.6777 16.2876C16.1604 16.2876 16.56 16.1582 16.8766 15.8995C17.1971 15.637 17.3574 15.247 17.3574 14.7296C17.3574 14.1929 17.1933 13.7855 16.8651 13.5075C16.5369 13.2295 16.116 13.0905 15.6024 13.0905C15.1043 13.0905 14.697 13.2333 14.3803 13.5191C14.0676 13.8009 13.9112 14.1929 13.9112 14.6948C13.9112 15.1273 14.0541 15.5018 14.3398 15.8185C14.6294 16.1312 15.0754 16.2876 15.6777 16.2876ZM14.195 12.5808C13.9054 12.4572 13.6795 12.3124 13.5173 12.1464C13.2123 11.8375 13.0598 11.4359 13.0598 10.9417C13.0598 10.3239 13.2837 9.79294 13.7316 9.3489C14.1796 8.90485 14.8147 8.68283 15.6372 8.68283C16.4326 8.68283 17.0562 8.89327 17.508 9.31415C17.9597 9.73116 18.1856 10.2196 18.1856 10.7795C18.1856 11.2969 18.0543 11.7159 17.7918 12.0363C17.645 12.2178 17.4172 12.3954 17.1083 12.5692C17.452 12.7275 17.7223 12.909 17.9192 13.1136C18.286 13.4998 18.4694 14.0017 18.4694 14.6195C18.4694 15.3493 18.2242 15.969 17.7339 16.4787C17.2435 16.9846 16.5504 17.2375 15.6546 17.2375C14.8476 17.2375 14.1641 17.0193 13.6042 16.583C13.0482 16.1428 12.7702 15.5057 12.7702 14.6717C12.7702 14.1813 12.8899 13.7585 13.1293 13.4032C13.3687 13.0441 13.7239 12.77 14.195 12.5808ZM19.8942 8.4917H21.0179V12.6387L25.1649 8.4917H26.7576L23.2188 11.9205L26.8561 17H25.356L22.379 12.7314L21.0179 14.0345V17H19.8942V8.4917Z" fill="white"/>
<path d="M36.7412 6.77344C35.1097 6.77344 33.7832 8.09989 33.7832 9.73148C33.7832 11.3319 35.0349 12.6272 36.6665 12.6833C36.7163 12.6771 36.7662 12.6771 36.8035 12.6833C36.816 12.6833 36.8222 12.6833 36.8347 12.6833C36.8409 12.6833 36.8409 12.6833 36.8471 12.6833C38.4413 12.6272 39.6931 11.3319 39.6993 9.73148C39.6993 8.09989 38.3728 6.77344 36.7412 6.77344Z" fill="white"/>
<path d="M39.9051 14.3394C38.1676 13.1811 35.3341 13.1811 33.5842 14.3394C32.7933 14.8688 32.3574 15.5849 32.3574 16.3509C32.3574 17.1169 32.7933 17.8268 33.578 18.3499C34.4498 18.9353 35.5957 19.228 36.7415 19.228C37.8874 19.228 39.0333 18.9353 39.9051 18.3499C40.6898 17.8206 41.1257 17.1107 41.1257 16.3384C41.1194 15.5725 40.6898 14.8625 39.9051 14.3394Z" fill="white"/>
</svg>
